#!OML:ASF E:\pregnant2\Project 1\Capture day 1\Session 1\pregnant2.ASF
:FULLY-SPECIFIED
:DEGREES
1135
root -4.45411 3.6165 18.7389 3.36953 0.59091 -6.55746
lowerback -4.33944 -1.76529 -3.87972
upperback -8.993 -2.30289 1.31363
thorax -6.76766 -0.836878 3.57897
lowerneck -8.08861 -3.15942 -6.76182
upperneck 45.2651 -4.1368 1.71549
head 18.7561 -2.73658 1.30551
rclavicle -1.33186e-014 1.11319e-014
rhumerus -89.7133 0.294055 -95.1294
rradius 31.0045
rwrist -0.103757
rhand -27.2657 -28.1288
rfingers 7.12502
rthumb -0.676727 -418.107
lclavicle -1.33186e-014 1.11319e-014
lhumerus -87.7923 -7.1301 89.4407
lradius 46.3877
lwrist 32.6999
lhand -39.2978 70.3754
lfingers 7.12502
lthumb -12.2908 260.006
rfemur -99.362 -10.1519 17.8668
rtibia 25.8876
rfoot -5.81038 -21.5044
rtoes 0.888578
lfemur -102.879 0.576402 -12.8312
ltibia 31.6371
lfoot 3.16764 36.533
ltoes 31.2251
1136
root -4.46223 3.61931 18.7455 3.49358 0.605474 -6.39501
lowerback -4.32633 -1.76437 -3.80662
upperback -8.99633 -2.30195 1.31897
thorax -6.78049 -0.840765 3.5442
lowerneck -8.10051 -3.16054 -6.71991
upperneck 45.2438 -4.13852 1.68813
head 18.7424 -2.73177 1.28458
rclavicle -2.18663e-015 -2.54444e-014
rhumerus -89.6633 0.283146 -95.0334
rradius 30.8688
rwrist 0.0218407
rhand -27.2917 -28.1174
rfingers 7.12502
rthumb -0.701797 -418.096
lclavicle -2.18663e-015 -2.54444e-014
lhumerus -87.3048 -6.83006 88.8558
lradius 45.573
lwrist 32.1138
lhand -39.2553 69.8526
lfingers 7.12502
lthumb -12.2498 260.526
rfemur -99.3711 -10.2401 17.8828
rtibia 25.8092
rfoot -5.76005 -21.4038
rtoes 0.364671
lfemur -102.961 0.579655 -12.9987
ltibia 31.5858
lfoot 3.51098 36.465
ltoes 30.8376
1137
root -4.47019 3.62206 18.7523 3.6184 0.619249 -6.23353
lowerback -4.31414 -1.76199 -3.72595
upperback -8.9979 -2.29914 1.32092
thorax -6.79136 -0.844446 3.50153
lowerneck -8.12347 -3.16393 -6.67011
upperneck 45.2244 -4.14322 1.65618
head 18.7329 -2.72732 1.25932
rclavicle -1.53064e-014 9.54166e-015
rhumerus -89.6143 0.28089 -94.9661
rradius 30.75
rwrist 0.142321
rhand -27.2834 -28.1096
rfingers 7.12502
rthumb -0.69379 -418.088
lclavicle -1.53064e-014 9.54166e-015
lhumerus -86.8203 -6.53277 88.2696
lradius 44.7575
lwrist 31.4967
lhand -39.2211 69.297
lfingers 7.12502
lthumb -12.2168 261.08
rfemur -99.3827 -10.3295 17.8993
rtibia 25.7394
rfoot -5.76176 -21.3285
rtoes 0.0173855
lfemur -103.046 0.584902 -13.2121
ltibia 31.5332
lfoot 3.90316 36.3662
ltoes 30.4122
1138
root -4.47819 3.62476 18.7594 3.74185 0.632899 -6.07682
lowerback -4.29973 -1.75923 -3.64016
upperback -8.99849 -2.29581 1.32328
thorax -6.80261 -0.848212 3.45646
lowerneck -8.15384 -3.16897 -6.61515
upperneck 45.2051 -4.1505 1.62189
head 18.7253 -2.72328 1.23143
rclavicle -2.98177e-015 -1.82882e-014
rhumerus -89.5712 0.291285 -94.9263
rradius 30.6525
rwrist 0.257901
rhand -27.242 -28.1024
rfingers 7.12502
rthumb -0.653807 -418.081
lclavicle -2.98177e-015 -1.82882e-014
lhumerus -86.3423 -6.23671 87.686
lradius 43.9406
lwrist 30.8351
lhand -39.1878 68.7036
lfingers 7.12502
lthumb -12.1848 261.671
rfemur -99.3953 -10.4189 17.9202
rtibia 25.6788
rfoot -5.80479 -21.2768
rtoes -0.576198
lfemur -103.133 0.593082 -13.469
ltibia 31.4791
lfoot 4.30076 36.2464
ltoes 30.0199
1139
root -4.48621 3.62741 18.7666 3.86499 0.644867 -5.92371
lowerback -4.28214 -1.75567 -3.55007
upperback -8.99848 -2.29152 1.32542
thorax -6.81525 -0.851774 3.40885
lowerneck -8.18739 -3.1756 -6.55481
upperneck 45.1806 -4.16125 1.58693
head 18.7151 -2.71971 1.20158
rclavicle -5.96354e-015 1.59028e-015
rhumerus -89.5374 0.312443 -94.9094
rradius 30.5812
rwrist 0.371881
rhand -27.1612 -28.1033
rfingers 7.12502
rthumb -0.575817 -418.082
lclavicle -5.96354e-015 1.59028e-015
lhumerus -85.872 -5.94215 87.1045
lradius 43.1247
lwrist 30.1206
lhand -39.1536 68.0743
lfingers 7.12502
lthumb -12.1517 262.299
rfemur -99.41 -10.5054 17.9446
rtibia 25.6283
rfoot -5.84167 -21.243
rtoes -0.966901
lfemur -103.218 0.604179 -13.7383
ltibia 31.4219
lfoot 4.56537 36.1587
ltoes 29.8478
1140
root -4.49426 3.63003 18.7736 3.98628 0.655178 -5.7737
lowerback -4.25798 -1.75132 -3.45853
upperback -8.99836 -2.28637 1.32779
thorax -6.83165 -0.854912 3.3609
lowerneck -8.2271 -3.18253 -6.48854
upperneck 45.1529 -4.17503 1.55504
head 18.7045 -2.71582 1.17154
rclavicle 6.75868e-015 -8.74653e-015
rhumerus -89.5146 0.342436 -94.9111
rradius 30.5355
rwrist 0.481038
rhand -27.0509 -28.1026
rfingers 7.12502
rthumb -0.469275 -418.082
lclavicle 6.75868e-015 -8.74653e-015
lhumerus -85.4096 -5.65098 86.5288
lradius 42.3066
lwrist 29.3561
lhand -39.1036 67.4148
lfingers 7.12502
lthumb -12.1036 262.955
rfemur -99.4252 -10.5879 17.9715
rtibia 25.5856
rfoot -5.92399 -21.2345
rtoes -1.41976
lfemur -103.301 0.61819 -14.0209
ltibia 31.3611
lfoot 4.84249 36.0657
ltoes 29.6788
1141
root -4.50222 3.6327 18.7802 4.10615 0.662125 -5.62522
lowerback -4.2281 -1.74619 -3.36634
upperback -8.99848 -2.28028 1.33078
thorax -6.85168 -0.857531 3.31345
lowerneck -8.26913 -3.18889 -6.41882
upperneck 45.1199 -4.19068 1.52771
head 18.6912 -2.7114 1.14273
rclavicle -3.97569e-015 -5.56597e-015
rhumerus -89.5054 0.382334 -94.9288
rradius 30.5178
rwrist 0.577631
rhand -26.9171 -28.1055
rfingers 7.12502
rthumb -0.340058 -418.085
lclavicle -3.97569e-015 -5.56597e-015
lhumerus -84.9514 -5.36043 85.9582
lradius 41.4809
lwrist 28.5471
lhand -39.0366 66.7318
lfingers 7.12502
lthumb -12.0389 263.634
rfemur -99.4404 -10.6645 17.9996
rtibia 25.549
rfoot -6.01445 -21.2459
rtoes -1.54974
lfemur -103.38 0.635957 -14.3162
ltibia 31.295
lfoot 5.11906 35.971
ltoes 29.5292
1142
root -4.51007 3.63538 18.7864 4.22542 0.663064 -5.47785
lowerback -4.1917 -1.74019 -3.27645
upperback -8.99972 -2.27308 1.33673
thorax -6.87661 -0.859207 3.27066
lowerneck -8.31355 -3.1946 -6.34775
upperneck 45.0814 -4.2068 1.50332
head 18.675 -2.70646 1.115
rclavicle 1.39149e-015 2.38542e-015
rhumerus -89.5134 0.43606 -94.9709
rradius 30.5315
rwrist 0.641239
rhand -26.7748 -28.1027
rfingers 7.12502
rthumb -0.202621 -418.082
lclavicle 1.39149e-015 2.38542e-015
lhumerus -84.4976 -5.06733 85.3955
lradius 40.6476
lwrist 27.7017
lhand -38.9615 66.0288
lfingers 7.12502
lthumb -11.9666 264.333
rfemur -99.456 -10.7332 18.0284
rtibia 25.5151
rfoot -6.1158 -21.2682
rtoes -1.62903
lfemur -103.455 0.660063 -14.6162
ltibia 31.2252
lfoot 5.3779 35.8811
ltoes 29.4098
1143
root -4.51762 3.63814 18.7919 4.34344 0.656995 -5.3293
lowerback -4.15222 -1.73002 -3.18254
upperback -8.99924 -2.26049 1.3388
thorax -6.90213 -0.858656 3.22154
lowerneck -8.36375 -3.20149 -6.2723
upperneck 45.0378 -4.2284 1.48551
head 18.6575 -2.70198 1.08862
rclavicle -3.97569e-014 1.27222e-014
rhumerus -89.5337 0.496987 -95.0505
rradius 30.5833
rwrist 0.666255
rhand -26.6075 -28.1114
rfingers 7.12502
rthumb -0.0409643 -418.091
lclavicle -3.97569e-014 1.27222e-014
lhumerus -84.0413 -4.78554 84.8434
lradius 39.8041
lwrist 26.8366
lhand -38.8844 65.3142
lfingers 7.12502
lthumb -11.8921 265.044
rfemur -99.4685 -10.7937 18.0556
rtibia 25.4766
rfoot -6.26243 -21.3066
rtoes -1.53051
lfemur -103.531 0.689688 -14.9174
ltibia 31.1616
lfoot 5.62593 35.7929
ltoes 29.3038
1144
root -4.5249 3.64101 18.7969 4.46138 0.642611 -5.17773
lowerback -4.11484 -1.71748 -3.09073
upperback -8.99711 -2.24454 1.34135
thorax -6.92481 -0.856391 3.17392
lowerneck -8.4188 -3.20899 -6.19873
upperneck 44.9902 -4.25218 1.47238
head 18.6391 -2.69801 1.06439
rclavicle -3.51849e-014 8.74653e-015
rhumerus -89.5702 0.575486 -95.1737
rradius 30.6793
rwrist 0.643864
rhand -26.4226 -28.1324
rfingers 7.12502
rthumb 0.137594 -418.112
lclavicle -3.51849e-014 8.74653e-015
lhumerus -83.5796 -4.50604 84.3047
lradius 38.9437
lwrist 25.9558
lhand -38.806 64.5787
lfingers 7.12502
lthumb -11.8166 265.775
rfemur -99.476 -10.8459 18.079
rtibia 25.4233
rfoot -6.37733 -21.3476
rtoes -1.29763
lfemur -103.613 0.724818 -15.2201
ltibia 31.1178
lfoot 5.86725 35.7021
ltoes 29.1858
